<mxfile host="app.diagrams.net" agent="Mozilla/5.0 (X11; Linux x86_64) AppleWebKit/537.36 (KHTML, like Gecko) Chrome/131.0.0.0 Safari/537.36" version="28.0.4">
  <diagram name="Page-1" id="nOCRgtnf3OO0YPdjOFGx">
    <mxGraphModel dx="2258" dy="814" grid="1" gridSize="10" guides="1" tooltips="1" connect="1" arrows="1" fold="1" page="1" pageScale="1" pageWidth="850" pageHeight="1100" math="0" shadow="0">
      <root>
        <mxCell id="0" />
        <mxCell id="1" parent="0" />
        <mxCell id="_oQXvfnrhqQgpWS-RbkP-1" value="&lt;b&gt;GROUP 1&lt;/b&gt;&lt;div&gt;&lt;b&gt;&lt;br&gt;&lt;/b&gt;&lt;div&gt;&lt;font style=&quot;color: light-dark(rgb(0, 79, 128), rgb(237, 237, 237));&quot;&gt;if 7th bit = 1:&lt;/font&gt;&lt;/div&gt;&lt;div&gt;&lt;font style=&quot;color: light-dark(rgb(0, 79, 128), rgb(237, 237, 237));&quot;&gt;4 Bits are grouped [6,5,4,3]&lt;/font&gt;&lt;/div&gt;&lt;/div&gt;" style="shape=note;whiteSpace=wrap;html=1;backgroundOutline=1;darkOpacity=0.05;size=17;fillColor=light-dark(#ededed, #ededed);" vertex="1" parent="1">
          <mxGeometry x="130" y="300" width="90" height="140" as="geometry" />
        </mxCell>
      </root>
    </mxGraphModel>
  </diagram>
</mxfile>
